<svg xmlns="http://www.w3.org/2000/svg" xmlns:xlink="http://www.w3.org/1999/xlink" width="200" zoomAndPan="magnify" viewBox="0 0 150 149.999998" height="200" preserveAspectRatio="xMidYMid meet" version="1.2"><defs><clipPath id="2949c93255"><path d="M 3.613281 1.785156 L 146.113281 1.785156 L 146.113281 146 L 3.613281 146 Z M 3.613281 1.785156 "/></clipPath></defs><g id="f561a6a1c9"><g clip-rule="nonzero" clip-path="url(#2949c93255)"><path style=" stroke:none;fill-rule:nonzero;fill:#278d46;fill-opacity:1;" d="M 146.109375 73.089844 C 146.109375 112.460938 114.214844 144.375 74.875 144.375 C 69.113281 144.382812 63.4375 143.703125 57.84375 142.328125 C 52.253906 140.953125 46.90625 138.925781 41.804688 136.246094 C 41.777344 136.257812 41.75 136.269531 41.722656 136.28125 L 20.25 145.210938 C 13.53125 148.003906 6.753906 141.351562 9.414062 134.578125 L 17.15625 114.882812 C 14.96875 111.863281 13.03125 108.691406 11.339844 105.367188 C 9.652344 102.042969 8.234375 98.605469 7.085938 95.058594 C 5.9375 91.511719 5.074219 87.894531 4.496094 84.210938 C 3.917969 80.527344 3.632812 76.820312 3.636719 73.089844 C 3.636719 33.722656 35.53125 1.804688 74.875 1.804688 C 114.214844 1.804688 146.109375 33.722656 146.109375 73.089844 Z M 146.109375 73.089844 "/></g><path style=" stroke:none;fill-rule:nonzero;fill:#ffffff;fill-opacity:1;" d="M 136.867188 73.089844 C 136.867188 75.121094 136.769531 77.148438 136.570312 79.171875 C 136.371094 81.195312 136.074219 83.199219 135.675781 85.195312 C 135.28125 87.1875 134.789062 89.15625 134.199219 91.097656 C 133.609375 93.042969 132.925781 94.953125 132.148438 96.832031 C 131.371094 98.707031 130.503906 100.542969 129.546875 102.335938 C 128.589844 104.125 127.546875 105.867188 126.417969 107.554688 C 125.292969 109.246094 124.082031 110.875 122.796875 112.445312 C 121.507812 114.015625 120.144531 115.519531 118.710938 116.957031 C 117.273438 118.394531 115.773438 119.757812 114.203125 121.046875 C 112.632812 122.335938 111.003906 123.542969 109.316406 124.671875 C 107.628906 125.800781 105.886719 126.84375 104.097656 127.800781 C 102.308594 128.757812 100.472656 129.625 98.597656 130.40625 C 96.722656 131.183594 94.8125 131.867188 92.871094 132.457031 C 90.925781 133.046875 88.960938 133.539062 86.96875 133.933594 C 84.976562 134.332031 82.972656 134.628906 80.949219 134.828125 C 78.929688 135.027344 76.90625 135.125 74.875 135.125 C 72.84375 135.125 70.820312 135.027344 68.796875 134.828125 C 66.777344 134.628906 64.773438 134.332031 62.78125 133.933594 C 60.789062 133.539062 58.820312 133.046875 56.878906 132.457031 C 54.9375 131.867188 53.027344 131.183594 51.152344 130.40625 C 49.273438 129.625 47.441406 128.757812 45.652344 127.800781 C 43.859375 126.84375 42.121094 125.800781 40.433594 124.671875 C 38.746094 123.542969 37.117188 122.335938 35.546875 121.046875 C 33.976562 119.757812 32.472656 118.394531 31.039062 116.957031 C 29.601562 115.519531 28.242188 114.015625 26.953125 112.445312 C 25.664062 110.875 24.457031 109.246094 23.328125 107.554688 C 22.199219 105.867188 21.160156 104.125 20.203125 102.335938 C 19.246094 100.542969 18.378906 98.707031 17.601562 96.832031 C 16.824219 94.953125 16.140625 93.042969 15.550781 91.097656 C 14.960938 89.15625 14.46875 87.1875 14.074219 85.195312 C 13.675781 83.199219 13.378906 81.195312 13.179688 79.171875 C 12.980469 77.148438 12.882812 75.121094 12.882812 73.089844 C 12.882812 71.058594 12.980469 69.03125 13.179688 67.011719 C 13.378906 64.988281 13.675781 62.980469 14.074219 60.988281 C 14.46875 58.996094 14.960938 57.027344 15.550781 55.082031 C 16.140625 53.136719 16.824219 51.226562 17.601562 49.351562 C 18.378906 47.472656 19.246094 45.640625 20.203125 43.847656 C 21.160156 42.054688 22.199219 40.316406 23.328125 38.625 C 24.457031 36.9375 25.664062 35.304688 26.953125 33.734375 C 28.242188 32.164062 29.601562 30.660156 31.039062 29.226562 C 32.472656 27.789062 33.976562 26.425781 35.546875 25.136719 C 37.117188 23.847656 38.746094 22.640625 40.433594 21.511719 C 42.121094 20.382812 43.859375 19.339844 45.652344 18.378906 C 47.441406 17.421875 49.273438 16.554688 51.152344 15.777344 C 53.027344 15 54.9375 14.316406 56.878906 13.726562 C 58.820312 13.136719 60.789062 12.644531 62.78125 12.246094 C 64.773438 11.851562 66.777344 11.554688 68.796875 11.355469 C 70.820312 11.15625 72.84375 11.054688 74.875 11.054688 C 76.90625 11.054688 78.929688 11.15625 80.949219 11.355469 C 82.972656 11.554688 84.976562 11.851562 86.96875 12.246094 C 88.960938 12.644531 90.925781 13.136719 92.871094 13.726562 C 94.8125 14.316406 96.722656 15 98.597656 15.777344 C 100.472656 16.554688 102.308594 17.421875 104.097656 18.378906 C 105.886719 19.339844 107.628906 20.382812 109.316406 21.511719 C 111.003906 22.640625 112.632812 23.847656 114.203125 25.136719 C 115.773438 26.425781 117.273438 27.789062 118.710938 29.226562 C 120.144531 30.660156 121.507812 32.164062 122.796875 33.734375 C 124.082031 35.304688 125.292969 36.9375 126.417969 38.625 C 127.546875 40.316406 128.589844 42.054688 129.546875 43.847656 C 130.503906 45.640625 131.371094 47.472656 132.148438 49.351562 C 132.925781 51.226562 133.609375 53.136719 134.199219 55.082031 C 134.789062 57.027344 135.28125 58.996094 135.675781 60.988281 C 136.074219 62.980469 136.371094 64.988281 136.570312 67.011719 C 136.769531 69.03125 136.867188 71.058594 136.867188 73.089844 Z M 136.867188 73.089844 "/><path style=" stroke:none;fill-rule:nonzero;fill:#278d46;fill-opacity:1;" d="M 128.183594 73.089844 C 128.183594 74.839844 128.097656 76.582031 127.929688 78.320312 C 127.757812 80.058594 127.5 81.785156 127.160156 83.5 C 126.820312 85.210938 126.394531 86.90625 125.890625 88.578125 C 125.382812 90.25 124.792969 91.890625 124.125 93.507812 C 123.457031 95.121094 122.714844 96.699219 121.890625 98.238281 C 121.066406 99.78125 120.171875 101.277344 119.199219 102.730469 C 118.230469 104.179688 117.191406 105.582031 116.082031 106.933594 C 114.976562 108.285156 113.804688 109.578125 112.570312 110.8125 C 111.335938 112.046875 110.042969 113.21875 108.695312 114.328125 C 107.34375 115.4375 105.945312 116.476562 104.492188 117.449219 C 103.039062 118.417969 101.542969 119.316406 100.003906 120.140625 C 98.464844 120.960938 96.886719 121.707031 95.277344 122.378906 C 93.664062 123.046875 92.019531 123.632812 90.347656 124.140625 C 88.679688 124.648438 86.988281 125.070312 85.273438 125.414062 C 83.5625 125.753906 81.835938 126.011719 80.101562 126.179688 C 78.363281 126.351562 76.621094 126.4375 74.875 126.4375 C 73.128906 126.4375 71.386719 126.351562 69.648438 126.179688 C 67.910156 126.011719 66.1875 125.753906 64.472656 125.414062 C 62.761719 125.070312 61.070312 124.648438 59.398438 124.140625 C 57.726562 123.632812 56.085938 123.046875 54.472656 122.378906 C 52.859375 121.707031 51.285156 120.960938 49.746094 120.140625 C 48.203125 119.316406 46.707031 118.417969 45.257812 117.449219 C 43.804688 116.476562 42.40625 115.4375 41.054688 114.328125 C 39.707031 113.21875 38.414062 112.046875 37.179688 110.8125 C 35.945312 109.578125 34.773438 108.285156 33.664062 106.933594 C 32.558594 105.582031 31.519531 104.179688 30.546875 102.730469 C 29.578125 101.277344 28.683594 99.78125 27.859375 98.238281 C 27.035156 96.699219 26.289062 95.121094 25.621094 93.507812 C 24.953125 91.890625 24.367188 90.25 23.859375 88.578125 C 23.351562 86.90625 22.929688 85.210938 22.589844 83.5 C 22.246094 81.785156 21.992188 80.058594 21.820312 78.320312 C 21.648438 76.582031 21.5625 74.839844 21.5625 73.089844 C 21.5625 71.34375 21.648438 69.601562 21.820312 67.863281 C 21.992188 66.125 22.246094 64.398438 22.589844 62.683594 C 22.929688 60.96875 23.351562 59.277344 23.859375 57.605469 C 24.367188 55.933594 24.953125 54.289062 25.621094 52.675781 C 26.289062 51.0625 27.035156 49.484375 27.859375 47.941406 C 28.683594 46.402344 29.578125 44.90625 30.546875 43.453125 C 31.519531 42 32.558594 40.597656 33.664062 39.246094 C 34.773438 37.898438 35.945312 36.605469 37.179688 35.367188 C 38.414062 34.132812 39.707031 32.960938 41.054688 31.851562 C 42.40625 30.746094 43.804688 29.707031 45.257812 28.734375 C 46.707031 27.765625 48.203125 26.867188 49.746094 26.042969 C 51.285156 25.21875 52.859375 24.472656 54.472656 23.804688 C 56.085938 23.136719 57.726562 22.546875 59.398438 22.039062 C 61.070312 21.535156 62.761719 21.109375 64.472656 20.769531 C 66.1875 20.429688 67.910156 20.171875 69.648438 20 C 71.386719 19.828125 73.128906 19.742188 74.875 19.742188 C 76.621094 19.742188 78.363281 19.828125 80.101562 20 C 81.835938 20.171875 83.5625 20.429688 85.273438 20.769531 C 86.988281 21.109375 88.679688 21.535156 90.347656 22.039062 C 92.019531 22.546875 93.664062 23.136719 95.277344 23.804688 C 96.886719 24.472656 98.464844 25.21875 100.003906 26.042969 C 101.542969 26.867188 103.039062 27.765625 104.492188 28.734375 C 105.945312 29.707031 107.34375 30.746094 108.695312 31.851562 C 110.042969 32.960938 111.335938 34.132812 112.570312 35.367188 C 113.804688 36.605469 114.976562 37.898438 116.082031 39.246094 C 117.191406 40.597656 118.230469 42 119.199219 43.453125 C 120.171875 44.90625 121.066406 46.402344 121.890625 47.941406 C 122.714844 49.484375 123.457031 51.0625 124.125 52.675781 C 124.792969 54.289062 125.382812 55.933594 125.890625 57.605469 C 126.394531 59.277344 126.820312 60.96875 127.160156 62.683594 C 127.5 64.398438 127.757812 66.125 127.929688 67.863281 C 128.097656 69.601562 128.183594 71.34375 128.183594 73.089844 Z M 128.183594 73.089844 "/><path style=" stroke:none;fill-rule:nonzero;fill:#ffffff;fill-opacity:1;" d="M 68.03125 55.664062 L 65.953125 46.898438 C 65.835938 46.398438 65.667969 45.914062 65.445312 45.453125 C 65.226562 44.988281 64.960938 44.550781 64.648438 44.140625 C 64.335938 43.734375 63.984375 43.363281 63.59375 43.027344 C 63.199219 42.695312 62.78125 42.40625 62.328125 42.160156 C 61.875 41.914062 61.402344 41.71875 60.910156 41.574219 C 60.417969 41.429688 59.914062 41.335938 59.402344 41.300781 C 58.890625 41.261719 58.378906 41.277344 57.867188 41.34375 C 57.359375 41.414062 56.863281 41.535156 56.378906 41.710938 L 51.59375 43.433594 C 50.816406 43.714844 50.105469 44.117188 49.460938 44.640625 C 48.820312 45.164062 48.28125 45.777344 47.847656 46.484375 C 47.414062 47.191406 47.109375 47.949219 46.933594 48.761719 C 46.757812 49.570312 46.722656 50.386719 46.824219 51.210938 C 48.492188 64.769531 56.167969 97.5625 91.464844 104.769531 C 92.164062 104.914062 92.871094 104.953125 93.582031 104.886719 C 94.296875 104.824219 94.984375 104.65625 95.644531 104.390625 C 96.308594 104.125 96.921875 103.769531 97.480469 103.320312 C 98.039062 102.875 98.523438 102.359375 98.929688 101.769531 L 101.675781 97.800781 C 101.949219 97.40625 102.179688 96.988281 102.371094 96.546875 C 102.5625 96.109375 102.707031 95.65625 102.808594 95.1875 C 102.910156 94.71875 102.964844 94.242188 102.972656 93.761719 C 102.980469 93.285156 102.941406 92.808594 102.855469 92.335938 C 102.769531 91.863281 102.636719 91.40625 102.460938 90.960938 C 102.285156 90.511719 102.066406 90.089844 101.808594 89.683594 C 101.550781 89.28125 101.253906 88.910156 100.917969 88.5625 C 100.585938 88.21875 100.222656 87.910156 99.828125 87.636719 L 99.78125 87.605469 L 93.746094 83.492188 C 93.09375 83.046875 92.386719 82.71875 91.625 82.503906 C 90.867188 82.289062 90.089844 82.199219 89.300781 82.234375 C 88.511719 82.269531 87.746094 82.433594 87.011719 82.71875 C 86.273438 83 85.601562 83.394531 84.992188 83.898438 C 84.386719 84.402344 83.714844 84.792969 82.984375 85.078125 C 82.253906 85.363281 81.492188 85.527344 80.710938 85.566406 C 79.925781 85.605469 79.152344 85.519531 78.398438 85.3125 C 77.640625 85.101562 76.933594 84.777344 76.28125 84.339844 C 72.613281 81.863281 67.640625 77.761719 64.414062 72.070312 C 64.050781 71.433594 63.789062 70.753906 63.628906 70.039062 C 63.46875 69.320312 63.417969 68.597656 63.476562 67.863281 C 63.53125 67.132812 63.695312 66.425781 63.96875 65.742188 C 64.238281 65.058594 64.601562 64.429688 65.0625 63.859375 L 66.613281 61.925781 C 67.320312 61.046875 67.796875 60.058594 68.046875 58.957031 C 68.292969 57.859375 68.289062 56.761719 68.03125 55.664062 Z M 68.03125 55.664062 "/><path style="fill:none;stroke-width:4;stroke-linecap:butt;stroke-linejoin:miter;stroke:#278d46;stroke-opacity:1;stroke-miterlimit:4;" d="M 0.00000416667 1.999907 L 64.000008 1.999907 " transform="matrix(0.75,0,0,0.75,74.999997,59.464914)"/></g></svg>